# xmcd CD database file
#
# Track frame offsets:
#	150
#	21652
#	40590
#	67590
#	85521
#	116250
#	138588
#	154288
#	173936
#	237093
#	265350
#
# Disc length: 3744 seconds
#
# Revision: 4
# Processed by: cddbd v1.5.2PL0 Copyright (c) Steve Scherf et al.
# Submitted via: CDex 1.51
#
DISCID=880e9e0b
DTITLE=Seth Yacovone Band - Dannemora
DYEAR=2000
DGENRE=Blues
TTITLE0=Dannemora
TTITLE1=Long Gone
TTITLE2=Restraints
TTITLE3=Old Noose Route
TTITLE4=Mold I
TTITLE5=Take it from Me
TTITLE6=Purfukt Roll Mottle
TTITLE7=Keep On Trying (2)
TTITLE8=Mold II (2)
TTITLE9=Rise
TTITLE10=Back in the Store
EXTD=YEAR: 2000
EXTT0=
EXTT1=
EXTT2=
EXTT3=
EXTT4=
EXTT5=
EXTT6=
EXTT7=
EXTT8=
EXTT9=
EXTT10=
PLAYORDER=
